<?xml version="1.0" encoding="UTF-8" standalone="no"?>
<svg
   xmlns:dc="http://purl.org/dc/elements/1.1/"
   xmlns:cc="http://creativecommons.org/ns#"
   xmlns:rdf="http://www.w3.org/1999/02/22-rdf-syntax-ns#"
   xmlns:svg="http://www.w3.org/2000/svg"
   xmlns="http://www.w3.org/2000/svg"
   xmlns:xlink="http://www.w3.org/1999/xlink"
   xmlns:sodipodi="http://sodipodi.sourceforge.net/DTD/sodipodi-0.dtd"
   xmlns:inkscape="http://www.inkscape.org/namespaces/inkscape"
   width="159mm"
   height="106mm"
   viewBox="0 0 159 106"
   version="1.1"
   id="svg34"
   inkscape:version="1.0.2 (394de47547, 2021-03-26)"
   sodipodi:docname="greece_cov19.svg">
  <defs
     id="defs28">
    <rect
       x="85.006039"
       y="82.181096"
       width="98.051591"
       height="61.947668"
       id="rect373" />
    <rect
       x="176.36515"
       y="30.642534"
       width="59.382979"
       height="12.883862"
       id="rect293" />
    <linearGradient
       inkscape:collect="always"
       xlink:href="#linearGradient6960"
       id="linearGradient6966"
       x1="163.2449"
       y1="147.0038"
       x2="343.39658"
       y2="348.56705"
       gradientUnits="userSpaceOnUse"
       gradientTransform="matrix(0.19480359,0,0,0.1971761,74.887757,5.4257381)" />
    <linearGradient
       inkscape:collect="always"
       id="linearGradient6960">
      <stop
         style="stop-color:#c8b7b7;stop-opacity:1;"
         offset="0"
         id="stop6956" />
      <stop
         style="stop-color:#c8b7b7;stop-opacity:0;"
         offset="1"
         id="stop6958" />
    </linearGradient>
    <linearGradient
       inkscape:collect="always"
       xlink:href="#linearGradient6952"
       id="linearGradient6954"
       x1="172.49451"
       y1="126.77074"
       x2="323.0434"
       y2="316.07382"
       gradientUnits="userSpaceOnUse" />
    <linearGradient
       inkscape:collect="always"
       id="linearGradient6952">
      <stop
         style="stop-color:#ff2a2a;stop-opacity:1;"
         offset="0"
         id="stop6948" />
      <stop
         style="stop-color:#2b0000;stop-opacity:1"
         offset="1"
         id="stop6950" />
    </linearGradient>
    <linearGradient
       inkscape:collect="always"
       xlink:href="#linearGradient6952"
       id="linearGradient265"
       gradientUnits="userSpaceOnUse"
       x1="172.49451"
       y1="126.77074"
       x2="323.0434"
       y2="316.07382"
       gradientTransform="matrix(0.19480359,0,0,0.1971761,74.887757,5.4257381)" />
    <linearGradient
       inkscape:collect="always"
       xlink:href="#linearGradient6960"
       id="linearGradient267"
       gradientUnits="userSpaceOnUse"
       x1="163.2449"
       y1="147.0038"
       x2="343.39658"
       y2="348.56705"
       gradientTransform="matrix(0.19480359,0,0,0.1971761,74.887757,5.4257381)" />
    <linearGradient
       inkscape:collect="always"
       xlink:href="#linearGradient6960"
       id="linearGradient269"
       gradientUnits="userSpaceOnUse"
       x1="163.2449"
       y1="147.0038"
       x2="343.39658"
       y2="348.56705"
       gradientTransform="matrix(0.19480359,0,0,0.1971761,74.887757,5.4257381)" />
    <linearGradient
       inkscape:collect="always"
       xlink:href="#linearGradient6960"
       id="linearGradient271"
       gradientUnits="userSpaceOnUse"
       x1="163.2449"
       y1="147.0038"
       x2="343.39658"
       y2="348.56705"
       gradientTransform="matrix(0.19480359,0,0,0.1971761,74.887757,5.4257381)" />
  </defs>
  <sodipodi:namedview
     id="base"
     pagecolor="#ffffff"
     bordercolor="#666666"
     borderopacity="1.0"
     inkscape:pageopacity="0.0"
     inkscape:pageshadow="2"
     inkscape:zoom="0.25"
     inkscape:cx="180.74679"
     inkscape:cy="-30.553968"
     inkscape:document-units="mm"
     inkscape:current-layer="layer2"
     inkscape:document-rotation="0"
     showgrid="false"
     inkscape:window-width="1321"
     inkscape:window-height="713"
     inkscape:window-x="45"
     inkscape:window-y="27"
     inkscape:window-maximized="1" />
  <metadata
     id="metadata31">
    <rdf:RDF>
      <cc:Work
         rdf:about="">
        <dc:format>image/svg+xml</dc:format>
        <dc:type
           rdf:resource="http://purl.org/dc/dcmitype/StillImage" />
        <dc:title></dc:title>
      </cc:Work>
    </rdf:RDF>
  </metadata>
  <g
     inkscape:groupmode="layer"
     id="layer2"
     inkscape:label="svg_map_greece">
    <path
       id="rect81"
       style="fill:#0d5eaf;fill-opacity:1;stroke:#ff0055;stroke-width:0.264583;stroke-opacity:0"
       d="M 35.282503,0.0023913 V 23.520851 H 58.799929 V 11.761879 H 158.75093 V 0.0023913 H 58.799929 Z M 58.799929,23.520851 V 35.280339 H 158.75093 V 23.520851 Z M 0.00403551,0.0029073 V 23.521367 H 23.521465 V 0.0029073 Z M 35.283019,35.281374 V 58.799319 H 58.800447 158.75196 V 47.039828 H 58.800447 V 35.281374 Z m -35.27329849,0.0078 V 58.807071 H 23.527148 V 35.289126 Z m 0.190169,35.270718 v 11.86594 H 158.75506 v -11.86594 z m -0.193786,23.51846 V 105.94424 H 158.56076 V 94.078304 Z" />
    <path
       style="fill:url(#linearGradient265);fill-opacity:1;stroke:#ff0055;stroke-width:0.195986;stroke-opacity:0"
       d="m 116.78064,23.806589 c 0.14334,0.08909 0.30143,0.105116 0.44842,0.154711 0.22661,0.07646 0.51177,8.95e-4 0.73982,0.0775 0.33437,0.112289 0.63395,0.121156 0.96729,0.205505 0.55814,0.141235 1.06779,0.321407 1.62482,0.462362 0.13053,0.03303 0.30804,0.149521 0.41814,0.223923 0.35287,0.238456 0.85677,0.329415 1.2907,0.329415 0.0818,0 0.2399,0.03365 0.30669,0 0.3736,-0.1882 1.16401,-1.094662 1.43302,-1.630068 0.20087,-0.399809 -0.53736,-0.638495 -0.63906,-0.841085 -0.17078,-0.340224 -0.0192,-1.007091 0.22532,-1.502089 0.0791,-0.160209 0.26101,-0.266945 0.35781,-0.41391 0.0605,-0.09186 0.17761,-0.254842 0.27842,-0.307675 0.63909,-0.334945 1.26803,0.162379 1.80183,0.482588 0.15979,0.09585 0.34203,0.104285 0.51149,0.189817 0.89872,0.453601 1.76781,0.676141 2.08791,1.648145 0.0868,0.263651 -0.0974,0.540471 -0.20436,0.750108 -0.59739,1.170695 -1.24542,0.333446 -1.92175,0.671942 -0.42844,0.214423 -0.54578,0.724101 -0.7228,1.087679 -0.42558,0.874102 -0.56034,1.721428 0.0742,2.584184 1.09965,1.032504 2.06675,2.188353 3.31,3.023795 0.40922,0.274984 0.46583,0.695981 0.90394,0.921205 0.79521,0.408797 2.52029,0.133068 3.24054,-0.225366 1.02308,-0.509135 0.1012,-1.140094 0.30076,-1.746102 0.21555,-0.654486 0.71434,-0.6918 1.25327,-0.871326 0.18186,-0.06059 0.23293,0.07949 0.36148,0.145924 0.48091,0.248535 0.64353,0.628991 0.86408,1.075475 0.0437,0.08841 0.0656,0.267508 0.1278,0.336308 0.56571,0.6261 1.47324,1.575429 1.24054,2.501098 -0.1762,0.700891 -0.79362,1.05937 -1.44131,0.731587 -0.28585,-0.144672 -0.38231,-0.490691 -0.63359,-0.618089 -0.22521,-0.114184 -0.6014,-0.09284 -0.82686,-0.01662 -0.30535,0.103244 -0.60295,0.31761 -0.88935,0.462558 -0.0241,0.01222 -0.0767,-0.0015 -0.0767,0.02586 0,0.161752 -0.82237,1.010021 -0.9651,1.299916 -0.10172,0.206631 -0.16238,0.41856 -0.26351,0.621427 -0.0532,0.106844 0.008,0.283241 -0.0434,0.386426 -0.0923,0.187217 0.0233,0.501742 0.0816,0.549311 -0.0473,0.339505 0.0955,0.597259 0.19115,0.882154 0.0891,0.265504 -0.0498,0.559207 0.0485,0.807906 0.27096,0.685651 0.36274,1.411903 0.58783,2.095415 0.10888,0.330608 0.35761,0.590128 0.50805,0.893258 0.0811,0.1634 0.31245,0.559685 0.52443,0.559685 0.15342,0.118842 0.27587,0.24185 0.43647,0.322879 0.6834,0.344849 3.84176,0.746284 4.57042,0.256152 0.15822,-0.10642 0.66653,-0.323938 0.73464,-0.531754 0.0733,-0.223584 0.13016,-0.661535 0.38927,-0.792271 0.16405,-0.08278 0.54276,-0.02586 0.73301,-0.02586 1.9342,0 0.5543,1.580281 0.88196,2.575248 0.12662,0.38448 0.30137,2.8493 0.12779,3.201534 -0.0505,0.102484 -0.20466,0.238854 -0.30844,0.292869 -0.27176,0.141438 -0.55552,0.185086 -0.86636,0.122158 -0.2203,-0.04456 -0.47368,0.0022 -0.6802,-0.101664 -0.42393,-0.212541 -0.65319,-0.902529 -0.87133,-1.344131 -0.14061,-0.284635 -0.57246,-0.26195 -0.79465,-0.376999 -0.24538,-0.127062 -1.80489,0.019 -2.07357,0.155009 -0.14741,0.0746 -0.27399,0.21599 -0.43444,0.270459 -0.23117,0.07847 -0.48037,0.05112 -0.70911,0.128464 -0.2179,0.0737 -0.29339,0.238735 -0.48114,0.333759 -0.43593,0.220619 -0.88709,0.395861 -1.1078,0.844535 -0.11226,0.228205 -0.42333,0.389675 -0.34229,0.66316 -0.37598,0.559521 -0.3324,1.230603 -0.61658,1.805907 -0.0854,0.172917 0.013,0.469989 -0.10235,0.645193 -0.30373,0.46115 -0.95755,2.61052 -0.68074,3.18999 0.26448,0.553671 0.15364,1.160223 0.79877,1.500593 0.2965,0.156432 1.24276,0.172238 1.61104,0.07717 0.7654,-0.197576 0.94044,-0.647369 1.76189,-0.372788 0.17482,0.05843 0.39999,0.175681 0.49003,0.359731 0.11633,0.237759 -1.44023,3.196392 -1.79681,3.557315 -0.24263,0.245584 -0.57686,0.372661 -0.93221,0.372661 -1.14899,0 -0.9041,-0.896216 -1.41362,-1.668754 -0.30587,-0.463758 -0.89781,-0.700168 -1.3793,-0.862614 -0.22584,-0.0762 -0.37083,-0.0045 -0.72981,0.055 -0.0709,0.0117 -0.2156,-0.07273 -0.2156,0 0,0.308109 -0.90664,0.502928 -1.16583,0.677782 -0.63286,0.426936 -1.11621,1.092548 -1.65233,1.635204 -0.16465,0.166656 -0.39518,0.236581 -0.57832,0.329266 -0.6192,0.31337 -1.19278,1.212396 -1.19278,1.865801 -0.11522,0.962051 0.36384,1.654059 0.62991,2.461973 0.13313,0.404258 1.28951,0.796884 1.68611,0.930698 0.41096,0.138651 0.53247,0.741156 0.68175,1.042171 0.39106,0.788552 -1.43892,1.361927 -1.87141,1.507843 -0.15849,0.05351 -0.28558,0.286811 -0.43449,0.362169 -0.2399,0.121413 -0.54975,0.306573 -0.78676,0.422345 -0.32215,0.157349 -1.32362,0.115787 -1.60787,-0.0281 -0.10704,-0.05418 -0.22397,-0.152154 -0.33225,-0.206951 -0.15926,-0.0806 -0.26345,-0.786034 -0.17891,-0.957169 0.0965,-0.195244 0.28689,-0.347942 0.38337,-0.54326 0.49495,-1.001958 0.007,-2.392822 -0.89453,-3.00085 -0.15656,-0.105644 -0.50368,-0.18566 -0.69007,-0.232826 -0.29308,-0.07415 -1.05059,-0.140908 -1.32902,0 -0.19255,0.09745 -0.38235,0.161604 -0.6134,0.181084 -1.05969,0.08939 -3.21887,0.817237 -3.85928,1.681513 -0.16352,0.220686 -0.53671,0.384779 -0.53671,0.672312 -0.37376,0.526693 -0.40149,1.12463 -0.55033,1.72724 -0.24865,1.006727 -0.58756,2.095832 0.0256,3.026717 0.0466,0.07072 0.12356,0.06439 0.18696,0.09678 0.65364,0.333648 1.00134,0.229308 1.21485,1.093733 0.0342,0.138435 0.0622,0.391016 0.0255,0.542 -0.0716,0.295083 -0.0254,0.948204 -0.34226,1.111433 -0.47091,0.24258 -1.39899,0.136362 -1.92116,0.07028 -0.37794,-0.04784 -0.77278,0.02869 -1.15011,-0.02586 -0.77464,-0.112009 -1.56193,-0.130632 -2.32082,-0.284262 -0.64241,-0.130043 -0.76591,-1.398637 -0.53672,-1.862589 0.2349,-0.475518 0.89885,-0.52176 1.22679,-0.853694 0.40396,-0.408879 0.34958,-1.41188 0.28114,-1.966072 -0.14373,-1.16389 -0.80101,-2.989478 -1.81463,-3.673453 -0.80678,-0.544407 -1.89596,-0.75179 -2.81139,-1.060652 -0.18184,-0.06133 -0.38757,-0.170271 -0.56228,-0.258693 -0.12844,-0.06498 -0.38306,-0.0052 -0.53672,-0.05172 -0.57051,-0.173244 -1.19055,-0.439784 -1.7124,-0.439784 -0.35683,-0.0313 -0.59078,0.336517 -0.89555,0.413634 -0.65245,0.165106 -1.09672,1.031245 -1.37446,1.593471 -0.1199,0.242715 -0.0812,0.910622 -3e-5,1.157167 0.11984,0.363912 0.52817,0.676262 0.37917,1.128692 -0.20085,0.609914 -0.71445,1.122335 -1.42376,0.978744 -0.30792,-0.0623 -0.45532,-0.209835 -0.69008,-0.388043 -0.18199,-0.138158 -0.48516,-0.227474 -0.690063,-0.310434 -0.64823,-0.262448 -1.98524,-0.492442 -2.27023,-1.213611 -0.13758,-0.348135 -0.14321,-0.867368 0.0767,-1.16412 0.71325,-0.962587 1.39083,-0.624475 2.376913,-0.957169 0.72243,-0.243743 1.29109,-2.184702 1.07344,-2.845633 -0.10593,-0.321643 -0.4057,-0.780341 -0.6134,-1.060645 -0.0926,-0.12499 -0.25321,-0.228831 -0.33225,-0.362176 -0.18813,-0.317357 -0.380333,-0.636406 -0.613403,-0.931294 -0.0573,-0.07244 -0.20292,-0.12464 -0.23002,-0.206959 -0.0682,-0.206951 0.17512,0.22518 0.0255,-0.07761 -0.10037,-0.203195 -1.04694,-0.884159 -1.25234,-1.008904 -0.26543,-0.161201 -0.46896,-0.431355 -0.74119,-0.569126 -1.02356,-0.518011 -2.34764,-0.831583 -3.24588,0.07761 -0.67541,0.820814 0.90271,1.026185 -0.63166,1.958017 -0.56698,0.344334 -1.60564,0.411398 -2.04465,-0.181084 -0.18527,-0.250033 -0.29315,-0.583406 -0.46005,-0.853687 -0.11094,-0.179683 -0.28758,-0.31957 -0.40893,-0.491518 -0.42172,-0.597602 -0.589,-1.212657 -0.25988,-1.87891 0.27848,-0.563753 0.49806,-0.898802 1.07343,-1.189994 0.45349,-0.229502 1.15334,0.388221 1.50492,0.566145 0.18785,0.09508 0.54261,-0.06454 0.71562,-0.103475 1.10145,-0.247745 1.26204,-2.153402 0.84342,-3.00085 -0.31903,-0.991376 -0.57847,-2.066105 -0.93126,-3.13737 -0.0936,-0.28409 -0.0589,-0.579813 -0.20437,-0.874284 -0.26006,-0.526462 -0.94822,-1.116597 -1.48236,-1.319345 -0.36193,-0.137369 -0.74356,-0.218264 -1.099,-0.362168 -0.58062,-0.235076 -1.72042,-0.597669 -2.37682,-0.360156 -1.24381,0.450061 -0.40048,1.558773 -1.24293,2.127244 -0.26897,0.181501 -0.68572,0.155217 -0.99676,0.155217 -0.35062,0 -0.43078,-0.146692 -0.72358,-0.245778 -1.12988,-0.382349 -0.85537,-2.180192 -0.85537,-3.170465 -0.0957,-0.259296 0.0408,-0.463505 0.0408,-0.736528 0,-0.903125 -0.0825,-1.929616 0.94565,-2.276507 0.6105,-0.205982 1.64739,-0.04307 2.02142,0.524823 0.37283,0.566056 0.6386,1.288373 1.50793,1.112386 0.13833,-0.02802 0.28899,-0.131995 0.43449,-0.181084 0.69083,-0.233086 1.39607,-0.303943 2.01909,-0.724343 0.35351,-0.238549 0.70012,-0.571728 1.08947,-0.766383 0.14312,-0.07154 0.55235,-0.942786 0.70559,-1.149588 1.16065,-1.566367 1.46473,-3.018713 0,-4.501279 -0.16572,-0.646541 -0.88862,-0.946222 -1.5124,-0.630541 -0.19957,0.101009 -0.35015,0.431929 -0.46327,0.469944 -0.46206,0.155261 -0.9208,-0.276601 -1.28164,-0.45922 -0.17634,-0.08924 -0.5867,-0.315159 -0.68263,-0.508107 -0.28159,-0.566407 0.7481,-1.672004 0.97591,-2.133169 0.20553,-0.41607 0.2952,-0.898392 0.57831,-1.280466 0.26116,-0.35245 0.64539,-0.632374 1.0482,-0.768282 0.29827,-0.100636 0.52682,0.006 0.81407,0.10317 1.0522,0.355006 0.59831,1.094284 0.95294,1.823166 0.28737,0.590634 1.169,0.995445 1.80211,0.995445 0.32835,0 0.68985,-0.264625 0.89869,-0.581699 0.17715,-0.268969 0.20028,-0.548841 0.369,-0.823519 0.23706,-0.385926 0.5277,-0.736461 0.79001,-1.090305 0.44466,-0.599845 1.07631,-1.254726 1.6872,-1.666944 0.35172,-0.237334 0.47722,-0.904883 0.941503,-1.061524 0.27355,-0.09229 0.65275,-0.514359 0.86521,-0.729411 0.13375,-0.564249 0.26478,-2.203151 -0.35496,-2.516791 -0.56239,-0.284619 -1.078953,-0.03595 -1.636053,-0.219509 -0.58421,-0.192492 -0.85604,-1.502561 -0.67182,-2.059809 0.0657,-0.198799 0.84129,-0.819093 1.1602,-0.926688 0.23543,-0.07943 0.606933,-0.135658 0.821623,-0.242435 0.29333,-0.145889 0.59797,-0.298994 0.91072,-0.421389 0.79233,-0.310082 1.8454,-1.019387 2.23353,0.182846 0.0564,0.174782 0.34881,0.558891 0.28498,0.757043 -0.11877,0.368751 -0.25147,0.784822 -0.41665,1.119874 -0.098,0.198759 -0.002,0.451393 0.0361,0.646074 0.13761,0.694344 0.27607,1.253846 0.96221,1.605267 0.63634,0.325912 1.45648,-0.392955 2.0124,-0.54037 0.72986,-0.193541 1.4951,-0.270676 2.23637,-0.45825 0.64714,-0.163756 0.94234,-0.458247 1.65346,-0.458247 0.75141,-0.787019 2.02924,-3.707326 1.61977,-4.743481 -0.0963,-0.243586 -0.2859,-0.784851 -0.54218,-0.91462 -0.18018,-0.09124 -0.42962,-0.07731 -0.55839,-0.272693 -0.41309,-0.626805 -0.34265,-1.723042 -0.11511,-2.413955 0.0361,-0.109696 -0.0359,-0.255858 0,-0.365621 0.11428,-0.348958 0.76624,-0.359835 1.04957,-0.400805 0.81524,-0.117881 1.62516,-0.109755 2.45784,-0.109755 1.06934,0 2.47846,-0.156882 2.89157,1.097546 0.15722,0.477412 -0.14103,1.879562 -0.61314,2.121759 -0.20425,0.104786 -0.57388,0.157569 -0.69933,0.41151 -0.60257,1.219813 -0.34344,3.182382 0.22485,4.332796 0.17111,0.346393 0.29909,1.127282 0.68551,1.27823 z"
       id="path5599" />
    <path
       style="fill:#c8b7b7;stroke:#ff0055;stroke-width:0.195986;stroke-opacity:0"
       id="path5603"
       sodipodi:type="arc"
       sodipodi:cx="109.6758"
       sodipodi:cy="39.090595"
       sodipodi:rx="6.441102"
       sodipodi:ry="5.3422346"
       sodipodi:start="0"
       sodipodi:end="6.2820683"
       sodipodi:open="true"
       sodipodi:arc-type="arc"
       d="m 116.1169,39.090595 a 6.441102,5.3422346 0 0 1 -6.4393,5.342235 6.441102,5.3422346 0 0 1 -6.4429,-5.339251 6.441102,5.3422346 0 0 1 6.4357,-5.345216 6.441102,5.3422346 0 0 1 6.44649,5.336265" />
    <path
       style="fill:url(#linearGradient267);fill-opacity:1;stroke:#ff0055;stroke-width:0.195986;stroke-opacity:0"
       id="path5605"
       sodipodi:type="arc"
       sodipodi:cx="111.94215"
       sodipodi:cy="55.32016"
       sodipodi:rx="3.7556193"
       sodipodi:ry="4.3921204"
       sodipodi:start="0"
       sodipodi:end="6.2820683"
       sodipodi:open="true"
       sodipodi:arc-type="arc"
       d="m 115.69777,55.32016 a 3.7556193,4.3921204 0 0 1 -3.75457,4.39212 3.7556193,4.3921204 0 0 1 -3.75667,-4.389667 3.7556193,4.3921204 0 0 1 3.75247,-4.394572 3.7556193,4.3921204 0 0 1 3.75876,4.387213" />
    <path
       style="fill:url(#linearGradient269);fill-opacity:1;stroke:#ff0055;stroke-width:0.195986;stroke-opacity:0"
       id="path5607"
       sodipodi:type="arc"
       sodipodi:cx="124.99728"
       sodipodi:cy="49.429569"
       sodipodi:rx="4.8753223"
       sodipodi:ry="3.3061616"
       sodipodi:start="0"
       sodipodi:end="6.2820683"
       sodipodi:open="true"
       sodipodi:arc-type="arc"
       d="m 129.8726,49.429569 a 4.8753223,3.3061616 0 0 1 -4.87396,3.306162 4.8753223,3.3061616 0 0 1 -4.87669,-3.304315 4.8753223,3.3061616 0 0 1 4.87124,-3.308007 4.8753223,3.3061616 0 0 1 4.87941,3.302467" />
    <path
       style="fill:#c8b7b7;stroke:#ff0055;stroke-width:0.195986;stroke-opacity:0"
       id="path5609"
       sodipodi:type="arc"
       sodipodi:cx="102.7163"
       sodipodi:cy="51.494434"
       sodipodi:rx="1.4145298"
       sodipodi:ry="1.2292701"
       sodipodi:start="0"
       sodipodi:end="6.2820683"
       sodipodi:open="true"
       sodipodi:arc-type="arc"
       d="m 104.13083,51.494434 a 1.4145298,1.2292701 0 0 1 -1.41413,1.22927 1.4145298,1.2292701 0 0 1 -1.41493,-1.228583 1.4145298,1.2292701 0 0 1 1.41335,-1.229956 1.4145298,1.2292701 0 0 1 1.41571,1.227896" />
    <path
       style="fill:#c8b7b7;stroke:#ff0055;stroke-width:0.195986;stroke-opacity:0"
       id="path5611"
       sodipodi:type="arc"
       sodipodi:cx="100.26915"
       sodipodi:cy="45.698784"
       sodipodi:rx="2.3846419"
       sodipodi:ry="1.9755818"
       sodipodi:start="0"
       sodipodi:end="6.2820683"
       sodipodi:open="true"
       sodipodi:arc-type="arc"
       d="m 102.65379,45.698784 a 2.3846419,1.9755818 0 0 1 -2.38397,1.975582 2.3846419,1.9755818 0 0 1 -2.385312,-1.974479 2.3846419,1.9755818 0 0 1 2.382642,-1.976684 2.3846419,1.9755818 0 0 1 2.38664,1.973374" />
    <path
       style="fill:url(#linearGradient271);fill-opacity:1;stroke:#ff0055;stroke-width:0.195986;stroke-opacity:0"
       id="path5613"
       sodipodi:type="arc"
       sodipodi:cx="113.69031"
       sodipodi:cy="48.061573"
       sodipodi:rx="1.997746"
       sodipodi:ry="1.0859497"
       sodipodi:start="0"
       sodipodi:end="6.2820683"
       sodipodi:open="true"
       sodipodi:arc-type="arc"
       d="m 115.68805,48.061573 a 1.997746,1.0859497 0 0 1 -1.99718,1.08595 1.997746,1.0859497 0 0 1 -1.99831,-1.085343 1.997746,1.0859497 0 0 1 1.99607,-1.086556 1.997746,1.0859497 0 0 1 1.99942,1.084736" />
    <path
       style="fill:#c8b7b7;stroke:#ff0055;stroke-width:0.195986;stroke-opacity:0"
       id="path5615"
       sodipodi:type="arc"
       sodipodi:cx="121.34464"
       sodipodi:cy="38.753929"
       sodipodi:rx="2.3574893"
       sodipodi:ry="1.595199"
       sodipodi:start="0"
       sodipodi:end="6.2820683"
       sodipodi:open="true"
       sodipodi:arc-type="arc"
       d="m 123.70213,38.753929 a 2.3574893,1.595199 0 0 1 -2.35683,1.595199 2.3574893,1.595199 0 0 1 -2.35815,-1.594308 2.3574893,1.595199 0 0 1 2.35552,-1.596089 2.3574893,1.595199 0 0 1 2.35946,1.593416" />
    <path
       style="fill:url(#linearGradient6966);fill-opacity:1;stroke:#ff0055;stroke-width:0.195986;stroke-opacity:0"
       id="path5617"
       sodipodi:type="arc"
       sodipodi:cx="128.70187"
       sodipodi:cy="42.269554"
       sodipodi:rx="1.9563068"
       sodipodi:ry="2.3108363"
       sodipodi:start="0"
       sodipodi:end="6.2820683"
       sodipodi:open="true"
       sodipodi:arc-type="arc"
       d="m 130.65818,42.269554 a 1.9563068,2.3108363 0 0 1 -1.95576,2.310836 1.9563068,2.3108363 0 0 1 -1.95685,-2.309545 1.9563068,2.3108363 0 0 1 1.95466,-2.312126 1.9563068,2.3108363 0 0 1 1.95795,2.308254" />
    <path
       style="fill:#c8b7b7;stroke:#ff0055;stroke-width:0.195986;stroke-opacity:0"
       id="path5619"
       sodipodi:type="arc"
       sodipodi:cx="118.57268"
       sodipodi:cy="32.002628"
       sodipodi:rx="3.2294922"
       sodipodi:ry="2.4050431"
       sodipodi:start="0"
       sodipodi:end="6.2820683"
       sodipodi:open="true"
       sodipodi:arc-type="arc"
       d="m 121.80217,32.002628 a 3.2294922,2.4050431 0 0 1 -3.22859,2.405043 3.2294922,2.4050431 0 0 1 -3.23039,-2.403699 3.2294922,2.4050431 0 0 1 3.22678,-2.406386 3.2294922,2.4050431 0 0 1 3.2322,2.402356" />
    <path
       style="fill:#c8b7b7;stroke:#ff0055;stroke-width:0.195986;stroke-opacity:0"
       id="path5621"
       sodipodi:type="arc"
       sodipodi:cx="106.9938"
       sodipodi:cy="30.423407"
       sodipodi:rx="1.4964994"
       sodipodi:ry="1.3545415"
       sodipodi:start="0"
       sodipodi:end="6.2820683"
       sodipodi:open="true"
       sodipodi:arc-type="arc"
       d="m 108.4903,30.423407 a 1.4964994,1.3545415 0 0 1 -1.49608,1.354541 1.4964994,1.3545415 0 0 1 -1.49692,-1.353785 1.4964994,1.3545415 0 0 1 1.49524,-1.355297 1.4964994,1.3545415 0 0 1 1.49776,1.353028" />
  </g>
  <g
     inkscape:groupmode="layer"
     id="layer1"
     inkscape:label="test">
    <path
       style="fill:#aa0000;fill-opacity:1;stroke:#ff0055;stroke-width:0.264583;stroke-opacity:0"
       d="M 104.89107,105.94205 158.7562,84.213573 158.78239,67.145008 62.918247,105.94433"
       id="path369"
       sodipodi:nodetypes="cccc" />
    <text
       xml:space="preserve"
       id="text371"
       style="font-style:normal;font-weight:normal;font-size:9.87778px;line-height:1.25;font-family:sans-serif;white-space:pre;shape-inside:url(#rect373);fill:#000000;fill-opacity:1;stroke:none;"
       transform="rotate(-22,125.66141,68.194305)"><tspan
         x="85.005859"
         y="90.921161"><tspan
           style="font-weight:bold;font-size:9.87778px;fill:#ffd5d5">COVID - 19</tspan></tspan></text>
  </g>
</svg>
