<?xml version="1.0" encoding="UTF-8" standalone="no"?>
<svg
   xmlns:dc="http://purl.org/dc/elements/1.1/"
   xmlns:cc="http://creativecommons.org/ns#"
   xmlns:rdf="http://www.w3.org/1999/02/22-rdf-syntax-ns#"
   xmlns:svg="http://www.w3.org/2000/svg"
   xmlns="http://www.w3.org/2000/svg"
   xmlns:sodipodi="http://sodipodi.sourceforge.net/DTD/sodipodi-0.dtd"
   xmlns:inkscape="http://www.inkscape.org/namespaces/inkscape"
   width="160"
   height="107"
   viewBox="0 0 42.333334 28.310418"
   version="1.1"
   id="svg22"
   inkscape:version="1.0.2 (394de47547, 2021-03-26)"
   sodipodi:docname="testst.svg">
  <defs
     id="defs16">
    <clipPath
       id="s">
      <path
         d="M 0,0 V 30 H 60 V 0 Z"
         id="path2" />
    </clipPath>
    <clipPath
       id="t">
      <path
         d="m 30,15 h 30 v 15 z m 0,0 V 30 H 0 Z m 0,0 H 0 V 0 Z m 0,0 V 0 h 30 z"
         id="path5" />
    </clipPath>
  </defs>
  <sodipodi:namedview
     id="base"
     pagecolor="#ffffff"
     bordercolor="#666666"
     borderopacity="1.0"
     inkscape:pageopacity="0.0"
     inkscape:pageshadow="2"
     inkscape:zoom="1"
     inkscape:cx="264.62952"
     inkscape:cy="56.387487"
     inkscape:document-units="mm"
     inkscape:current-layer="layer2"
     inkscape:document-rotation="0"
     showgrid="false"
     units="px"
     inkscape:window-width="1321"
     inkscape:window-height="713"
     inkscape:window-x="45"
     inkscape:window-y="27"
     inkscape:window-maximized="1" />
  <metadata
     id="metadata19">
    <rdf:RDF>
      <cc:Work
         rdf:about="">
        <dc:format>image/svg+xml</dc:format>
        <dc:type
           rdf:resource="http://purl.org/dc/dcmitype/StillImage" />
        <dc:title></dc:title>
      </cc:Work>
    </rdf:RDF>
  </metadata>
  <g
     inkscape:groupmode="layer"
     id="layer2"
     inkscape:label="svg"
     style="display:inline">
    <path
       style="fill:#c8102e;fill-opacity:1;stroke:#ff0055;stroke-width:0.0404133;stroke-opacity:0"
       d="m 0.00349166,27.98224 14.00921034,-9.326688 3.13192,-1.6e-5 -14.0084703,9.326448 z"
       id="path123" />
    <path
       style="fill:#c8102e;fill-opacity:1;stroke:#ff0055;stroke-width:0.0404133;stroke-opacity:0"
       d="m 28.023312,18.655848 14.0075,9.326392 -2.6e-4,-2.086008 -10.87517,-7.240206 z"
       id="path125" />
    <path
       style="fill:#c8102e;fill-opacity:1;stroke:#ff0055;stroke-width:0.0404133;stroke-opacity:0"
       d="m 28.020852,9.3296478 -3.12847,-0.0029 14.00666,-9.32516382 3.13177,5.61e-4 z"
       id="path127" />
    <path
       style="fill:#c8102e;fill-opacity:1;stroke:#ff0055;stroke-width:0.0404133;stroke-opacity:0"
       d="m 0.00362166,11.193846 18.91259034,5.29e-4 -5.3e-4,-11.19227302 4.20257,-2.89e-4 2.7e-4,11.19238702 18.91227,1.9e-5 -1.3e-4,5.595991 -18.91217,-1.55e-4 -2.6e-4,11.193844 -4.20168,-0.0014 -10e-4,-11.190305 -18.91195034,-0.0024 z"
       id="path129"
       sodipodi:nodetypes="ccccccccccc" />
    <path
       style="fill:#012169;fill-opacity:1;stroke:#ff0055;stroke-width:0.0404133;stroke-opacity:0"
       d="m 0.00366166,3.1303949 3e-5,6.1985199 9.30978024,-4.59e-4 z"
       id="path135" />
    <path
       style="fill:#012169;fill-opacity:1;stroke:#ff0055;stroke-width:0.0404133;stroke-opacity:0"
       d="m 0.00356166,18.655462 -2.6e-4,6.199174 9.31046024,-6.199051 z"
       id="path137" />
    <path
       style="fill:#012169;fill-opacity:1;stroke:#ff0055;stroke-width:0.0404133;stroke-opacity:0"
       d="m 4.7033317,27.981576 12.8102103,-8.527871 10e-4,8.528406 z"
       id="path139" />
    <path
       style="fill:#012169;fill-opacity:1;stroke:#ff0055;stroke-width:0.0404133;stroke-opacity:0"
       d="m 24.519362,19.452621 1.3e-4,8.529674 12.81204,-1.57e-4 z"
       id="path141" />
    <path
       style="fill:#012169;fill-opacity:1;stroke:#ff0055;stroke-width:0.0404133;stroke-opacity:0"
       d="m 32.721352,18.655488 9.31027,6.194592 -9.2e-4,-6.194826 z"
       id="path143" />
    <path
       style="fill:#012169;fill-opacity:1;stroke:#ff0055;stroke-width:0.0404133;stroke-opacity:0"
       d="m 32.721072,9.3276528 9.30995,9.52e-4 2.6e-4,-6.1988379 z"
       id="path145" />
    <path
       style="fill:#012169;fill-opacity:1;stroke:#ff0055;stroke-width:0.0404133;stroke-opacity:0"
       d="m 24.519172,0.00192698 4e-4,8.53063582 12.81305,-8.53109982 z"
       id="path147" />
    <path
       style="fill:#c8102e;fill-opacity:1;stroke:#ff0055;stroke-width:0.0404133;stroke-opacity:0"
       d="M 0.00345166,2.0874489 10.880082,9.3288618 14.012652,9.3287438 0.00349166,0.00210698 Z"
       id="path149" />
    <path
       style="fill:#012169;fill-opacity:1;stroke:#ff0055;stroke-width:0.0404133;stroke-opacity:0"
       d="M 4.7023117,0.00220598 17.514692,8.5318838 17.514862,0.00220198 Z"
       id="path153" />
  </g>
</svg>
