<?xml version="1.0" encoding="UTF-8" standalone="no"?>
<svg
   xmlns:dc="http://purl.org/dc/elements/1.1/"
   xmlns:cc="http://creativecommons.org/ns#"
   xmlns:rdf="http://www.w3.org/1999/02/22-rdf-syntax-ns#"
   xmlns:svg="http://www.w3.org/2000/svg"
   xmlns="http://www.w3.org/2000/svg"
   xmlns:xlink="http://www.w3.org/1999/xlink"
   xmlns:sodipodi="http://sodipodi.sourceforge.net/DTD/sodipodi-0.dtd"
   xmlns:inkscape="http://www.inkscape.org/namespaces/inkscape"
   version="1.1"
   id="svg2"
   width="1066.6667"
   height="1066.6667"
   viewBox="0 0 1066.6667 1066.6667"
   sodipodi:docname="KTlogo.svg"
   inkscape:version="1.0.2 (394de47547, 2021-03-26)">
  <metadata
     id="metadata8">
    <rdf:RDF>
      <cc:Work
         rdf:about="">
        <dc:format>image/svg+xml</dc:format>
        <dc:type
           rdf:resource="http://purl.org/dc/dcmitype/StillImage" />
        <dc:title></dc:title>
      </cc:Work>
    </rdf:RDF>
  </metadata>
  <defs
     id="defs6">
    <inkscape:path-effect
       effect="fillet_chamfer"
       id="path-effect25"
       is_visible="true"
       lpeversion="1"
       satellites_param="F,0,0,1,0,0,0,1 @ F,0,0,1,0,0,0,1 @ F,0,0,1,0,0,0,1 @ F,0,0,1,0,0,0,1 @ F,0,0,1,0,0,0,1 @ F,0,0,1,0,0,0,1 @ F,0,0,1,0,0,0,1 @ F,0,0,1,0,6.0672712,0,1 @ F,0,0,1,0,0,0,1 @ F,0,0,1,0,0,0,1 @ F,0,0,1,0,0,0,1 @ F,0,0,1,0,0,0,1 @ F,0,0,1,0,0,0,1 @ F,0,0,1,0,0,0,1 @ F,0,0,1,0,0,0,1 @ F,0,0,1,0,0,0,1 @ F,0,0,1,0,0,0,1 @ F,0,0,1,0,0,0,1 @ F,0,1,1,0,6.0672712,0,1 @ F,0,0,1,0,0,0,1 @ F,0,0,1,0,0,0,1 @ F,0,0,1,0,0,0,1 @ F,0,0,1,0,0,0,1 @ F,0,0,1,0,0,0,1 @ F,0,0,1,0,0,0,1 @ F,0,0,1,0,0,0,1 @ F,0,0,1,0,0,0,1 @ F,0,0,1,0,0,0,1 @ F,0,0,1,0,0,0,1 @ F,0,0,1,0,0,0,1 @ F,0,0,1,0,0,0,1 @ F,0,0,1,0,0,0,1 @ F,0,0,1,0,0,0,1 | F,0,0,1,0,0,0,1 @ F,0,0,1,0,0,0,1 @ F,0,0,1,0,0,0,1 @ F,0,0,1,0,0,0,1 @ F,0,0,1,0,0,0,1 @ F,0,0,1,0,0,0,1 @ F,0,0,1,0,0,0,1 @ F,0,0,1,0,0,0,1 @ F,0,0,1,0,0,0,1 @ F,0,0,1,0,0,0,1"
       unit="px"
       method="auto"
       mode="F"
       radius="0"
       chamfer_steps="1"
       flexible="false"
       use_knot_distance="true"
       apply_no_radius="true"
       apply_with_radius="true"
       only_selected="false"
       hide_knots="false" />
    <linearGradient
       inkscape:collect="always"
       id="linearGradient1176">
      <stop
         style="stop-color:#1f2d3f;stop-opacity:1"
         offset="0"
         id="stop1172" />
      <stop
         style="stop-color:#186879;stop-opacity:1"
         offset="1"
         id="stop1174" />
    </linearGradient>
    <inkscape:path-effect
       effect="fillet_chamfer"
       id="path-effect1132"
       is_visible="true"
       lpeversion="1"
       satellites_param="F,0,0,1,0,0,0,1 @ F,0,0,1,0,0,0,1 @ F,0,0,1,0,18.765689,0,1 @ F,0,0,1,0,0,0,1 @ F,0,0,1,0,0,0,1 @ F,0,1,1,0,18.765689,0,1 @ F,0,0,1,0,0,0,1 @ F,0,0,1,0,0,0,1"
       unit="px"
       method="auto"
       mode="F"
       radius="0"
       chamfer_steps="1"
       flexible="false"
       use_knot_distance="true"
       apply_no_radius="true"
       apply_with_radius="true"
       only_selected="false"
       hide_knots="false" />
    <inkscape:path-effect
       effect="fillet_chamfer"
       id="path-effect1130"
       is_visible="true"
       lpeversion="1"
       satellites_param="F,0,1,1,0,9.3686027,0,1 @ F,0,0,1,0,9.3686027,0,1 @ F,0,0,1,0,0,0,1 @ F,0,0,1,0,0,0,1 @ F,0,0,1,0,9.2304107,0,1 @ F,0,0,1,0,9.2304107,0,1 @ F,0,0,1,0,9.2304107,0,1 @ F,0,0,1,0,9.2304107,0,1 @ F,0,0,1,0,0,0,1 @ F,0,0,1,0,0,0,1 @ F,0,0,1,0,0,0,1 @ F,0,0,1,0,9.2304107,0,1 @ F,0,0,1,0,9.2304107,0,1 @ F,0,0,1,0,9.2304107,0,1 @ F,0,0,1,0,9.2304107,0,1 @ F,0,0,1,0,0,0,1 @ F,0,0,1,0,0,0,1 @ F,0,0,1,0,0,0,1 @ F,0,0,1,0,9.2304107,0,1 @ F,0,0,1,0,9.2304107,0,1"
       unit="px"
       method="auto"
       mode="F"
       radius="0"
       chamfer_steps="1"
       flexible="false"
       use_knot_distance="true"
       apply_no_radius="true"
       apply_with_radius="true"
       only_selected="false"
       hide_knots="false" />
    <linearGradient
       inkscape:collect="always"
       id="linearGradient1039">
      <stop
         style="stop-color:#000235;stop-opacity:0.99432814"
         offset="0"
         id="stop1035" />
      <stop
         style="stop-color:#6e8bcc;stop-opacity:1"
         offset="1"
         id="stop1037" />
    </linearGradient>
    <inkscape:path-effect
       effect="fillet_chamfer"
       id="path-effect1025"
       is_visible="true"
       lpeversion="1"
       satellites_param="F,0,0,1,0,0,0,1 @ F,0,1,1,0,7.9282848,0,1 @ F,0,0,1,0,7.9282848,0,1 @ F,0,1,1,0,7.9282848,0,1 @ F,0,1,1,0,7.9282848,0,1 @ F,0,0,1,0,0,0,1 @ F,0,0,1,0,0,0,1 @ F,0,0,1,0,0,0,1 @ F,0,0,1,0,0,0,1 @ F,0,0,1,0,0,0,1 @ F,0,0,1,0,0,0,1 @ F,0,1,1,0,7.9282848,0,1 @ F,0,1,1,0,7.9282848,0,1 @ F,0,1,1,0,7.9282848,0,1 @ F,0,1,1,0,7.9282848,0,1 @ F,0,0,1,0,0,0,1 @ F,0,0,1,0,0,0,1 @ F,0,0,1,0,0,0,1 @ F,0,0,1,0,0,0,1 @ F,0,1,1,0,7.9282848,0,1 @ F,0,1,1,0,7.9282848,0,1 @ F,0,1,1,0,7.9282848,0,1 @ F,0,1,1,0,7.9282848,0,1 @ F,0,0,1,0,0,0,1 @ F,0,0,1,0,0,0,1 @ F,0,0,1,0,0,0,1 @ F,0,0,1,0,0,0,1 @ F,0,0,1,0,0,0,1 @ F,0,1,1,0,7.9282848,0,1 @ F,0,1,1,0,7.9282848,0,1 @ F,0,1,1,0,7.9282848,0,1 @ F,0,1,1,0,7.9282848,0,1 @ F,0,0,1,0,0,0,1"
       unit="px"
       method="auto"
       mode="F"
       radius="0"
       chamfer_steps="1"
       flexible="false"
       use_knot_distance="true"
       apply_no_radius="true"
       apply_with_radius="true"
       only_selected="false"
       hide_knots="false" />
    <inkscape:path-effect
       effect="fillet_chamfer"
       id="path-effect911"
       is_visible="true"
       lpeversion="1"
       satellites_param="F,0,0,1,0,0,0,1 @ F,0,0,1,0,0,0,1 @ F,0,0,1,0,18.140149,0,1 @ F,0,0,1,0,0,0,1 @ F,0,0,1,0,0,0,1 @ F,0,1,1,0,18.140149,0,1 @ F,0,0,1,0,0,0,1 @ F,0,0,1,0,0,0,1"
       unit="px"
       method="auto"
       mode="F"
       radius="0"
       chamfer_steps="1"
       flexible="false"
       use_knot_distance="true"
       apply_no_radius="true"
       apply_with_radius="true"
       only_selected="false"
       hide_knots="false" />
    <inkscape:path-effect
       effect="fillet_chamfer"
       id="path-effect909"
       is_visible="true"
       lpeversion="1"
       satellites_param="F,0,0,1,0,9.4267748,0,1 @ F,0,1,1,0,9.4267748,0,1 @ F,0,1,1,0,9.4267748,0,1 @ F,0,0,1,0,0,0,1 @ F,0,0,1,0,0,0,1 @ F,0,0,1,0,0,0,1 @ F,0,1,1,0,9.4267748,0,1 @ F,0,1,1,0,9.4267748,0,1 @ F,0,1,1,0,9.4267748,0,1 @ F,0,1,1,0,9.4267748,0,1 @ F,0,0,1,0,0,0,1 @ F,0,0,1,0,0,0,1 @ F,0,0,1,0,0,0,1 @ F,0,1,1,0,9.4267748,0,1 @ F,0,1,1,0,9.4267748,0,1 @ F,0,1,1,0,9.4267748,0,1 @ F,0,1,1,0,9.4267748,0,1 @ F,0,0,1,0,0,0,1 @ F,0,0,1,0,0,0,1 @ F,0,1,1,0,9.4267748,0,1"
       unit="px"
       method="auto"
       mode="F"
       radius="0"
       chamfer_steps="1"
       flexible="false"
       use_knot_distance="true"
       apply_no_radius="true"
       apply_with_radius="true"
       only_selected="false"
       hide_knots="false" />
    <linearGradient
       inkscape:collect="always"
       xlink:href="#linearGradient1039"
       id="linearGradient1041"
       x1="31.477484"
       y1="1037.1771"
       x2="1029.7947"
       y2="55.446449"
       gradientUnits="userSpaceOnUse"
       gradientTransform="translate(4.9464003e-5)" />
    <linearGradient
       inkscape:collect="always"
       xlink:href="#linearGradient1176"
       id="linearGradient1170"
       gradientUnits="userSpaceOnUse"
       gradientTransform="translate(2.7860968e-6)"
       x1="28.937742"
       y1="1051.3802"
       x2="1039.6851"
       y2="39.159473" />
  </defs>
  <sodipodi:namedview
     pagecolor="#ffffff"
     bordercolor="#666666"
     borderopacity="1"
     objecttolerance="10"
     gridtolerance="10"
     guidetolerance="10"
     inkscape:pageopacity="0"
     inkscape:pageshadow="2"
     inkscape:window-width="1321"
     inkscape:window-height="713"
     id="namedview4"
     showgrid="false"
     showguides="false"
     inkscape:guide-bbox="true"
     inkscape:zoom="0.3371635"
     inkscape:cx="1084.204"
     inkscape:cy="559.41581"
     inkscape:window-x="45"
     inkscape:window-y="27"
     inkscape:window-maximized="1"
     inkscape:current-layer="layer1"
     inkscape:document-rotation="0" />
  <g
     inkscape:groupmode="layer"
     id="layer1"
     inkscape:label="svg">
    <ellipse
       style="fill:url(#linearGradient1170);fill-opacity:1;fill-rule:evenodd;stroke-width:1.05"
       id="path1033"
       cx="536.26202"
       cy="533.94318"
       rx="509.86273"
       ry="509.01154" />
    <path
       id="path1126"
       style="fill:#e8d54b;fill-opacity:1;stroke:#fefefe;stroke-width:2;stroke-linecap:butt;stroke-linejoin:miter;stroke-miterlimit:4;stroke-dasharray:none;stroke-opacity:1"
       d="m 288.30503,160.67507 c -5.15701,0.0244 -9.32457,4.21208 -9.32422,9.36914 V 308.8196 c -3e-5,5.09786 4.13261,9.2305 9.23047,9.23047 h 0.10156 c 5.09786,3e-5 9.2305,-4.13261 9.23047,-9.23047 v -10.76953 h 172.80773 a 6.0672712,6.0672712 45 0 1 6.06727,6.06727 v 563.30773 h -10.89453 c -5.09786,-3e-5 -9.2305,4.13261 -9.23047,9.23047 v 0.41406 c -3e-5,5.09786 4.13261,9.2305 9.23047,9.23047 h 140.16406 c 5.09786,3e-5 9.2305,-4.13261 9.23047,-9.23047 v -0.41406 c 3e-5,-5.09786 -4.13261,-9.2305 -9.23047,-9.23047 H 594.91831 V 304.11734 a 6.0672712,6.0672712 135 0 1 6.06727,-6.06727 h 174.06359 v 10.76953 c -3e-5,5.09786 4.13261,9.2305 9.23047,9.23047 h 0.0332 c 5.09786,3e-5 9.2305,-4.13261 9.23047,-9.23047 V 169.90554 c 3e-5,-5.09786 -4.13261,-9.2305 -9.23047,-9.23047 h -0.0332 c -5.09786,-3e-5 -9.2305,4.13261 -9.23047,9.23047 v 10.83203 H 297.54331 v -10.69336 c 0.0488,-5.12599 -4.06737,-9.32083 -9.19336,-9.36914 -0.015,-4e-5 -0.0299,-4e-5 -0.0449,0 z m 9.23828,38.625 h 477.50586 v 78.875 H 593.80893 c -10.36395,4e-5 -18.76558,8.40167 -18.76562,18.76562 v 570.48438 h -79 V 296.94069 c -4e-5,-10.36395 -8.40167,-18.76558 -18.76562,-18.76562 H 297.54331 Z"
       inkscape:path-effect="#path-effect25"
       inkscape:original-d="m 288.30503,160.67507 a 9.3686027,9.3686027 0 0 0 -9.32422,9.36914 V 308.8196 a 9.2304107,9.2304107 0 0 0 9.23047,9.23047 h 0.10156 a 9.2304107,9.2304107 0 0 0 9.23047,-9.23047 v -10.76953 h 178.875 v 569.375 h -10.89453 a 9.2304107,9.2304107 0 0 0 -9.23047,9.23047 v 0.41406 a 9.2304107,9.2304107 0 0 0 9.23047,9.23047 h 140.16406 a 9.2304107,9.2304107 0 0 0 9.23047,-9.23047 v -0.41406 a 9.2304107,9.2304107 0 0 0 -9.23047,-9.23047 h -10.76953 v -569.375 h 180.13086 v 10.76953 a 9.2304107,9.2304107 0 0 0 9.23047,9.23047 h 0.0332 a 9.2304107,9.2304107 0 0 0 9.23047,-9.23047 V 169.90554 a 9.2304107,9.2304107 0 0 0 -9.23047,-9.23047 h -0.0332 a 9.2304107,9.2304107 0 0 0 -9.23047,9.23047 v 10.83203 H 297.54331 v -10.69336 a 9.281245,9.281245 0 0 0 -9.19336,-9.36914 9.3686027,9.3686027 0 0 0 -0.0449,0 z m 9.23828,38.625 h 477.50586 v 78.875 H 593.80893 a 18.765689,18.765689 0 0 0 -18.76562,18.76562 v 570.48438 h -79 V 296.94069 A 18.765689,18.765689 0 0 0 477.27769,278.17507 H 297.54331 Z" />
    <g
       id="path1021"
       style="opacity:1">
      <path
         style="color:#000000;font-style:normal;font-variant:normal;font-weight:normal;font-stretch:normal;font-size:medium;line-height:normal;font-family:sans-serif;font-variant-ligatures:normal;font-variant-position:normal;font-variant-caps:normal;font-variant-numeric:normal;font-variant-alternates:normal;font-variant-east-asian:normal;font-feature-settings:normal;font-variation-settings:normal;text-indent:0;text-align:start;text-decoration:none;text-decoration-line:none;text-decoration-style:solid;text-decoration-color:#000000;letter-spacing:normal;word-spacing:normal;text-transform:none;writing-mode:lr-tb;direction:ltr;text-orientation:mixed;dominant-baseline:auto;baseline-shift:baseline;text-anchor:start;white-space:normal;shape-padding:0;shape-margin:0;inline-size:0;clip-rule:nonzero;display:inline;overflow:visible;visibility:visible;isolation:auto;mix-blend-mode:normal;color-interpolation:sRGB;color-interpolation-filters:linearRGB;solid-color:#000000;solid-opacity:1;vector-effect:none;fill:#e0d158;fill-opacity:1;fill-rule:nonzero;stroke:none;stroke-width:2;stroke-linecap:butt;stroke-linejoin:miter;stroke-miterlimit:4;stroke-dasharray:none;stroke-dashoffset:0;stroke-opacity:1;color-rendering:auto;image-rendering:auto;shape-rendering:auto;text-rendering:auto;enable-background:accumulate;stop-color:#000000;stop-opacity:1"
         d="m 322.2349,355.19287 h -9.43775 c -4.37867,0 -7.92828,-3.54961 -7.92828,-7.92828 v -0.009 c 0,-4.37867 3.54961,-7.92828 7.92828,-7.92828 h 130.92576 c 4.37867,0 7.92828,3.54961 7.92828,7.92828 v 0.009 c 0,4.37867 -3.54961,7.92828 -7.92828,7.92828 h -8.85315 -0.47178 v 161.75438 h 8.24985 L 599.41821,360.17688 v -4.98401 h -10.57367 c -4.37867,0 -7.92828,-3.54961 -7.92828,-7.92828 v -0.009 c 0,-4.37867 3.54961,-7.92828 7.92828,-7.92828 h 170.88242 c 4.37867,0 7.92828,3.54961 7.92828,7.92828 v 0.009 c 0,4.37867 -3.54961,7.92828 -7.92828,7.92828 h -4.52937 L 540.50691,569.88355 v 7.07577 l 211.54286,211.54287 h 7.67719 c 4.37867,0 7.92828,3.54961 7.92828,7.92828 v 0.30354 c 0,4.37867 -3.54961,7.92828 -7.92828,7.92828 H 588.84454 c -4.37867,0 -7.92828,-3.54961 -7.92828,-7.92828 v -0.30354 c 0,-4.37867 3.54961,-7.92828 7.92828,-7.92828 h 10.57367 v -4.26911 L 442.5926,627.40747 h -8.19462 v 161.09472 h 9.32493 c 4.37867,0 7.92828,3.54961 7.92828,7.92828 v 0.30354 c 0,4.37867 -3.54961,7.92828 -7.92828,7.92828 H 312.79715 c -4.37867,0 -7.92828,-3.54961 -7.92828,-7.92828 v -0.30354 c 0,-4.37867 3.54961,-7.92828 7.92828,-7.92828 h 9.43775 z"
         id="path852" />
      <path
         style="color:#000000;font-style:normal;font-variant:normal;font-weight:normal;font-stretch:normal;font-size:medium;line-height:normal;font-family:sans-serif;font-variant-ligatures:normal;font-variant-position:normal;font-variant-caps:normal;font-variant-numeric:normal;font-variant-alternates:normal;font-variant-east-asian:normal;font-feature-settings:normal;font-variation-settings:normal;text-indent:0;text-align:start;text-decoration:none;text-decoration-line:none;text-decoration-style:solid;text-decoration-color:#000000;letter-spacing:normal;word-spacing:normal;text-transform:none;writing-mode:lr-tb;direction:ltr;text-orientation:mixed;dominant-baseline:auto;baseline-shift:baseline;text-anchor:start;white-space:normal;shape-padding:0;shape-margin:0;inline-size:0;clip-rule:nonzero;display:inline;overflow:visible;visibility:visible;isolation:auto;mix-blend-mode:normal;color-interpolation:sRGB;color-interpolation-filters:linearRGB;solid-color:#000000;solid-opacity:1;vector-effect:none;fill:#000000;fill-opacity:1;fill-rule:nonzero;stroke:none;stroke-linecap:butt;stroke-linejoin:miter;stroke-miterlimit:4;stroke-dasharray:none;stroke-dashoffset:0;stroke-opacity:1;color-rendering:auto;image-rendering:auto;shape-rendering:auto;text-rendering:auto;enable-background:accumulate;stop-color:#000000;stop-opacity:1"
         d="m 312.79688,338.32812 c -4.91912,10e-6 -8.92774,4.00863 -8.92774,8.92774 v 0.008 c 0,4.91911 4.00862,8.92969 8.92774,8.92969 h 8.4375 v 431.30859 h -8.4375 c -4.91912,0 -8.92774,4.00863 -8.92774,8.92774 v 0.30469 c 0,4.91911 4.00862,8.92773 8.92774,8.92773 h 130.92578 c 4.91911,0 8.92773,-4.00862 8.92773,-8.92773 v -0.30469 c 0,-4.91911 -4.00862,-8.92774 -8.92773,-8.92774 h -8.32422 V 628.4082 h 6.77929 l 156.24024,156.23828 v 2.85547 h -9.57422 c -4.91911,0 -8.92773,4.00863 -8.92773,8.92774 v 0.30469 c 0,4.91911 4.00862,8.92773 8.92773,8.92773 h 170.88281 c 4.91911,0 8.92774,-4.00862 8.92774,-8.92773 v -0.30469 c 0,-4.91911 -4.00863,-8.92774 -8.92774,-8.92774 h -7.26172 L 541.50781,576.54492 v -6.24804 L 755.61133,356.19336 h 4.11523 c 4.91911,0 8.92774,-4.01058 8.92774,-8.92969 v -0.008 c 0,-4.91911 -4.00863,-8.92774 -8.92774,-8.92774 H 588.84375 c -4.91911,0 -8.92773,4.00863 -8.92773,8.92774 v 0.008 c 0,4.91911 4.00862,8.92969 8.92773,8.92969 h 9.57422 v 3.56836 L 442.23438,515.94727 h -6.83594 V 356.19336 h 8.32422 c 4.91911,0 8.92773,-4.01058 8.92773,-8.92969 v -0.008 c 0,-4.91911 -4.00862,-8.92773 -8.92773,-8.92774 z m 0,2 h 130.92578 c 3.83823,10e-6 6.92773,3.08951 6.92773,6.92774 v 0.008 c 0,3.83823 -3.0895,6.92969 -6.92773,6.92969 h -8.85352 -1.4707 v 163.75391 h 9.66406 L 600.41797,360.5918 v -6.39844 h -11.57422 c -3.83823,0 -6.92773,-3.09146 -6.92773,-6.92969 v -0.008 c 0,-3.83823 3.0895,-6.92773 6.92773,-6.92774 h 170.88281 c 3.83823,0 6.92774,3.08951 6.92774,6.92774 v 0.008 c 0,3.83823 -3.08951,6.92969 -6.92774,6.92969 H 754.7832 L 539.50781,569.46875 v 7.9043 l 212.12696,212.1289 h 8.09179 c 3.83823,0 6.92774,3.08951 6.92774,6.92774 v 0.30469 c 0,3.83823 -3.08951,6.92773 -6.92774,6.92773 H 588.84375 c -3.83823,0 -6.92773,-3.0895 -6.92773,-6.92773 v -0.30469 c 0,-3.83823 3.0895,-6.92774 6.92773,-6.92774 h 11.57422 v -5.68359 L 443.00586,626.4082 h -9.60742 v 163.09375 h 10.32422 c 3.83823,0 6.92773,3.08951 6.92773,6.92774 v 0.30469 c 0,3.83823 -3.0895,6.92773 -6.92773,6.92773 H 312.79688 c -3.83824,0 -6.92774,-3.0895 -6.92774,-6.92773 v -0.30469 c 0,-3.83823 3.0895,-6.92774 6.92774,-6.92774 h 10.4375 V 354.19336 h -1 -9.4375 c -3.83824,0 -6.92774,-3.09146 -6.92774,-6.92969 v -0.008 c 0,-3.83823 3.0895,-6.92773 6.92774,-6.92774 z"
         id="path854" />
    </g>
  </g>
</svg>
